<?xml version="1.0" encoding="UTF-8"?>
<svg id="Layer_2" data-name="Layer 2" xmlns="http://www.w3.org/2000/svg" viewBox="0 0 323.86 229.17">
  <defs>
    <style>
      .cls-1 {
        fill: #9e9e9e;
      }
    </style>
  </defs>
  <g id="Layer_1-2" data-name="Layer 1">
    <g id="Cow">
      <path class="cls-1" d="m90.37,111.78c0-32.82,21.74-56.66,49.97-59.22,34.4-3.12,63.27,25.14,60.2,59.46-1.73,19.4-11.46,34.11-28.44,43.88-.43.25-.89.67-1.31.64-1.11-.08-2.21-.35-3.32-.55.45-1.03.63-2.43,1.41-3.03,3.52-2.68,7.62-4.71,10.79-7.72,15.29-14.57,20.71-32.33,14.52-52.6-6.19-20.26-20.59-32.17-41.39-35.62-21.09-3.5-42.21,7.55-52.28,26.51-10.08,18.96-7.28,42.05,7.01,57.94.46.51,1.21.98,1.32,1.56.16.93.2,2.17-.3,2.82-.33.43-1.75.25-2.58,0-.57-.18-.98-.93-1.44-1.44-9.43-10.54-14.03-22.92-14.15-32.62Z"/>
      <path class="cls-1" d="m145.73,41.67c34,.25,61.95,25.91,65.23,59.91.7,7.28.05,14.39-1.6,21.44-.24,1.04-1.34,2.61-2.13,2.67-2.42.18-2.42-1.48-1.96-3.42,3.42-14.45,2.05-28.44-4.5-41.8-11.06-22.56-35.23-37.41-62.09-34.02-28.25,3.57-49.27,23.81-53.66,50.74-3.19,19.53,2.04,36.71,15.04,51.58.52.59,1.32,1.12,1.49,1.8.21.83.21,2.12-.29,2.61-.47.47-1.74.31-2.59.14-.49-.1-.89-.74-1.27-1.19-16.99-19.58-22.32-41.92-13.6-66.4,8.73-24.52,26.73-38.9,52.52-43.19,3.1-.52,6.28-.58,9.42-.86Z"/>
      <path class="cls-1" d="m190.37,107.52c-.11,18.87-11.99,35.77-29.59,42.1-.83.3-1.73.86-2.52.73-.81-.13-1.84-.79-2.16-1.5-.24-.53.28-1.72.83-2.22.6-.55,1.62-.65,2.45-.95,17.73-6.44,28.43-23.97,26.49-43.35-1.75-17.38-16.17-32.17-34.09-34.96-21.07-3.28-41.27,10.43-45.85,31.13-4.66,21.1,7.65,41.95,28.25,47.95,1.61.47,4.45.28,3.69,3.09-.81,3-3.28,1.36-4.96.88-19.59-5.59-33.46-24.89-32.13-44.61,1.49-22.28,16.63-39.27,37.96-42.61,27.12-4.24,51.79,16.92,51.64,44.29Z"/>
      <path class="cls-1" d="m111.11,107.51c-.02-17.95,12.87-32.06,31.45-34.43,15.99-2.05,32.35,9.56,36.41,25.81.38,1.52.82,3.08-1.18,3.63-2.01.56-2.5-.99-2.85-2.52-.07-.29-.18-.56-.26-.85-2.26-7.89-7.01-13.85-14.05-17.96-11.13-6.49-25.43-5.02-35.02,3.51-9.97,8.87-13.08,22.7-7.84,34.85,5.1,11.82,17.35,19.15,30.23,18.07,12.89-1.08,23.26-9.65,26.75-22.09.21-.76.16-1.72.62-2.25.67-.78,1.7-1.26,2.57-1.86.49.85,1.46,1.74,1.38,2.54-.18,1.84-.73,3.67-1.37,5.42-5.72,15.63-21.86,24.95-38.27,22.15-16.46-2.8-28.54-17.19-28.56-34.02Z"/>
      <path class="cls-1" d="m221.71,107.46c.04,31.09-18.93,59.21-47.76,70.77-.37.15-.78.45-1.1.38-1.17-.26-2.31-.66-3.47-1,.62-.95,1.03-2.29,1.91-2.77,4.22-2.33,8.86-4.01,12.83-6.69,24.53-16.56,36.29-39.84,32.7-69.19-3.85-31.44-22.44-51.5-52.52-61.02-.47-.15-1.13-.07-1.41-.36-.71-.77-1.26-1.7-1.87-2.56.92-.49,1.83-1.34,2.77-1.38,1.23-.05,2.5.49,3.72.86,32.32,9.81,54.17,39.22,54.21,72.97Z"/>
      <path class="cls-1" d="m37.74,107.51c.43-27.53,9.46-51.46,27.54-71.92.26-.3.48-.73.81-.85,1.14-.4,2.72-1.33,3.42-.9,1.7,1.04.79,2.48-.31,3.68-6.68,7.35-12.56,15.32-16.62,24.39-18.01,40.12-13.27,77.55,13.73,112.21.48.62,1.29,1.19,1.38,1.87.11.84-.12,1.99-.67,2.55-.38.38-1.72.26-2.32-.12-.89-.55-1.54-1.51-2.22-2.35-16.31-20.05-24.37-43.07-24.73-68.56Z"/>
      <path class="cls-1" d="m58.69,109.39c.91-29.97,11.8-52.77,33.54-70.25.61-.49,1.23-1.15,1.94-1.31.75-.17,2.04-.13,2.34.32.43.66.46,1.87.15,2.64-.3.73-1.25,1.21-1.94,1.76-39.06,30.73-42.49,88.11-7.37,123.38.28.28.57.55.85.82,1.13,1.09,2.31,2.44.63,3.64-.69.49-2.73.09-3.46-.62-12.6-12.2-20.97-26.86-24.51-44.06-1.25-6.06-1.65-12.29-2.16-16.32Z"/>
      <path class="cls-1" d="m0,144.42c.33-1.11.52-1.77.72-2.42,3.61-11.87,5.56-23.94,5.56-36.42,0-20.95,4.98-40.83,14.18-59.65.26-.53.39-1.26.82-1.55.93-.62,2.02-1.01,3.04-1.5.24,1.11.97,2.42.63,3.31-1.51,3.85-3.51,7.5-5.03,11.35-9.72,24.7-11.8,50.08-7.1,76.18,1.5,8.32-1.18,16.21-4.83,23.67-.9,1.85-2.96,1.92-3.64.13-1.67-4.41-2.99-8.95-4.35-13.12Zm7.83-12.35c-.91,3.27-1.67,6.6-2.77,9.8-1.02,2.97.34,5.29,1.29,8.36,2.45-6.46,3.05-12.74,1.48-18.16Z"/>
      <path class="cls-1" d="m40.19,35.84c.38,1,1.04,2,1.06,3.01.01.76-.78,1.54-1.23,2.3-24.74,42-25.62,84.55-2.99,127.66.83,1.59,3.01,3.57.25,4.98-2.47,1.26-3.07-1.46-3.86-2.95-23.5-44.62-22.49-88.68,3.19-132.12.65-1.1,1.65-2,2.49-2.99l1.1.1Z"/>
      <path class="cls-1" d="m69.33,107.41c1.1-29.13,13.8-51.49,39.07-66.47.59-.35,1.24-.9,1.85-.87.94.04,2.35.24,2.65.84.32.65-.1,2.16-.72,2.69-1.25,1.08-2.87,1.71-4.3,2.59-38.63,23.89-45.91,76.7-15.19,110.13.47.51,1.18.94,1.36,1.54.36,1.15.43,2.39.61,3.6-1.21-.24-2.84-.07-3.56-.79-6.92-6.92-12.22-14.98-15.95-24.03-3.84-9.33-5.82-19.04-5.83-29.21Z"/>
      <path class="cls-1" d="m232.25,102.67c-.05,20.74-4.09,35.29-11.99,48.79-.3.51-.64,1-.92,1.52-.78,1.44-1.95,2.68-3.45,1.44-.62-.51-.57-2.51-.12-3.5,1.96-4.3,4.51-8.35,6.27-12.72,15.4-38.26.26-81.77-35.43-102.29-1.56-.9-4.45-1.52-2.89-4.12,1.54-2.57,3.54-.33,5.05.58,28.33,17.13,42.41,42.5,43.48,70.3Z"/>
      <path class="cls-1" d="m48.28,105.67c.58-26.07,10.61-49.74,30.71-69.05.57-.54,1.15-1.33,1.82-1.44.82-.14,1.98.07,2.54.61.4.38.27,1.63-.02,2.34-.27.67-1.05,1.15-1.61,1.7-19.59,19-29.42,42.18-29.14,69.43.18,17.03,5,32.85,14,47.36.42.67,1.11,1.34,1.14,2.03.04.85-.25,2.1-.84,2.47-.57.35-1.85.03-2.55-.42-.68-.44-1.04-1.4-1.51-2.16-9.62-15.69-14.34-32.77-14.54-52.86Z"/>
      <path class="cls-1" d="m145.62,131.02c-13.08,0-23.63-10.43-23.7-23.42-.07-13.08,10.59-23.7,23.75-23.66,13.04.04,23.59,10.59,23.56,23.55-.03,12.98-10.62,23.53-23.6,23.53Zm-.16-4.18c10.72.02,19.49-8.59,19.58-19.26.09-10.6-8.66-19.4-19.36-19.45-10.72-.05-19.47,8.55-19.57,19.23-.1,10.58,8.72,19.45,19.35,19.48Z"/>
      <path class="cls-1" d="m27.25,109.32c.27-28.19,8.12-51.83,23.72-72.89.29-.4.59-.79.89-1.18.95-1.23,2.06-2.48,3.66-1.22,1.61,1.27.59,2.59-.35,3.83-17.39,22.97-25.15,48.88-23.42,77.6.84,13.93,4.36,27.22,10.21,39.89.21.45.42.89.64,1.33.72,1.43,1.22,3.1-.68,3.66-.78.23-2.55-.9-3.01-1.84-5.7-11.61-9.31-23.86-10.76-36.71-.54-4.8-.71-9.64-.91-12.49Z"/>
      <path class="cls-1" d="m242.82,106.7c-.04,11.72-1.84,22.36-5.41,32.7-.31.91-.7,1.97-1.4,2.5-.53.4-2.09.36-2.35-.03-.5-.75-.69-1.97-.49-2.88,1.42-6.23,3.59-12.36,4.39-18.66,4.1-32.33-6.07-59.64-29.75-81.96-1.36-1.28-2.83-2.46-4.3-3.63-1.24-.99-2.41-2.06-1.14-3.66,1.32-1.68,2.63-.57,3.81.37,13.7,10.99,23.75,24.67,30.1,41.04,4.37,11.25,6.45,22.93,6.54,34.21Z"/>
      <path class="cls-1" d="m292.77,79.07c-.42.42-1.19,1.72-1.77,1.65-.9-.12-2.16-1.04-2.41-1.87-1.31-4.44-2.18-9-3.5-13.43-6.22-20.84-16.72-39.29-31.24-55.46-.53-.59-1.29-1.13-1.46-1.82-.2-.82-.19-2.13.3-2.57.52-.46,1.76-.28,2.62-.09.48.1.86.77,1.25,1.21,18.35,20.28,30.27,43.83,35.93,70.57.08.39.12.78.28,1.81Z"/>
      <path class="cls-1" d="m253.01,99.68c.05.99.38,2.07.08,2.93-.33.94-1.24,1.67-1.9,2.49-.73-.77-1.98-1.46-2.12-2.32-.65-4.18-.79-8.44-1.48-12.62-3.55-21.36-13.09-39.71-28.13-55.23-.41-.43-1.09-.76-1.22-1.25-.3-1.16-.35-2.39-.5-3.59,1.12.18,2.44.04,3.31.61,1.29.85,2.28,2.16,3.35,3.32,17.14,18.57,26.56,40.51,28.6,65.66Z"/>
      <path class="cls-1" d="m303.94,80.96c-.46.47-1.39,1.87-1.79,1.73-.98-.33-2.23-1.24-2.47-2.16-1.58-5.89-2.68-11.92-4.39-17.78-4.72-16.22-12.08-31.21-21.77-45.05-.51-.73-1.28-1.42-1.41-2.22-.13-.82.13-2.09.7-2.5.54-.38,1.75-.04,2.56.26.47.17.76.87,1.1,1.35,13.84,19.64,22.91,41.27,27.16,64.92.05.29.12.58.3,1.44Z"/>
      <path class="cls-1" d="m262.41,88.7c-.49.45-1.19,1.62-1.93,1.65-.74.02-1.96-.95-2.21-1.74-.75-2.34-1.09-4.8-1.65-7.2-4.17-18.03-12.38-34.02-24.36-48.09-.32-.38-.84-.72-.92-1.14-.22-1.19-.26-2.41-.36-3.62,1.19.32,2.83.25,3.51,1.03,14.64,16.61,23.75,35.9,27.69,57.67.05.29.09.58.23,1.45Z"/>
      <path class="cls-1" d="m281.96,78.62c-.49.47-1.12,1.53-1.94,1.7-.62.13-1.87-.74-2.14-1.43-.74-1.92-1.09-3.98-1.62-5.98-4.58-17.27-12.3-33.01-23.1-47.25-.48-.63-1.24-1.22-1.35-1.91-.15-.92-.08-2.17.46-2.79.36-.4,1.73-.03,2.6.19.39.1.68.68.98,1.07,12.37,16.11,20.9,34.04,25.54,53.82.16.67.29,1.35.56,2.58Z"/>
      <path class="cls-1" d="m271.35,79.16c-.5.52-1.39,1.92-1.81,1.79-1-.31-2.24-1.19-2.56-2.12-1.92-5.59-3.33-11.36-5.42-16.87-4.45-11.7-10.71-22.41-18.55-32.18-.43-.54-1.15-1.07-1.2-1.65-.08-.94,0-2.17.56-2.8.34-.39,1.71,0,2.56.24.4.11.67.69.98,1.08,12.02,15.02,20.35,31.86,24.9,50.56.12.48.26.95.54,1.96Z"/>
      <path class="cls-1" d="m15.24,146.63c.39.53,1.25,1.26,1.54,2.17,4.25,13.13,10.36,25.32,18.3,36.6.92,1.31,1.64,2.89-.2,3.7-.75.33-2.59-.53-3.2-1.38-8.25-11.43-14.42-23.94-18.78-37.34-.75-2.3.08-3.88,2.34-3.75Z"/>
      <path class="cls-1" d="m202.27,140.34c-.55,1-.92,1.8-1.39,2.53-6.83,10.64-15.98,18.66-27.4,24.08-1.43.68-3.12,1.62-4.05-.45-.92-2.02.84-2.71,2.29-3.4,10.71-5.05,19.23-12.59,25.65-22.54.37-.58.66-1.36,1.2-1.64.68-.35,1.67-.55,2.36-.32.56.19.88,1.1,1.34,1.73Z"/>
      <path class="cls-1" d="m314.51,80.33c-.47.47-1.41,1.85-1.81,1.71-.99-.35-2.24-1.27-2.47-2.2-1.32-5.25-2.12-10.63-3.57-15.83-1.67-5.96-3.91-11.76-5.69-17.7-.3-1,.49-2.32.77-3.49,1.01.66,2.57,1.1,2.95,2.02,4.53,11.06,7.64,22.55,9.59,34.34.03.19.08.39.24,1.15Z"/>
      <path class="cls-1" d="m22.65,187.08c.43.36,1.26.86,1.83,1.57,4.28,5.42,8.57,10.83,12.69,16.37.57.77.23,2.21.31,3.33-1.13-.2-2.76,0-3.32-.67-4.56-5.57-8.98-11.26-13.3-17.02-1.25-1.67-.43-3.45,1.78-3.59Z"/>
      <path class="cls-1" d="m211.59,163.16c-.62.89-.99,1.73-1.62,2.29-4.73,4.28-9.48,8.54-14.28,12.74-1.16,1.01-2.81,1.78-3.71,0-.36-.72.43-2.51,1.23-3.26,4.5-4.23,9.13-8.33,13.81-12.37.77-.67,1.98-1.03,3.02-1.11.44-.03.97,1.03,1.56,1.72Z"/>
      <path class="cls-1" d="m43.45,226.85c-.46.55-.88,1.52-1.43,1.6-.84.12-2-.11-2.6-.65-3.01-2.69-5.92-5.5-8.8-8.32-1.48-1.45-2.97-2.92-4.16-4.59-.46-.65-.09-1.9-.1-2.87.98,0,2.37-.44,2.89.05,4.59,4.32,9.03,8.8,13.48,13.26.32.32.42.86.72,1.54Z"/>
      <path class="cls-1" d="m72.16,209c-.02,2.04-1.74,3.11-3.12,2-4.46-3.57-8.8-7.3-13.04-11.13-.48-.43-.42-2.26.08-2.75.49-.49,2.17-.51,2.77-.03,4.23,3.39,8.33,6.95,12.43,10.5.48.41.71,1.1.89,1.39Z"/>
      <path class="cls-1" d="m69.2,193.1c-.32.52-.56,1.4-1.04,1.56-.74.25-2.01.37-2.43-.06-3.95-4-7.81-8.08-11.55-12.27-.4-.45-.2-2.04.3-2.52.47-.46,2.08-.55,2.51-.13,3.97,3.97,7.81,8.09,11.66,12.19.25.26.33.69.56,1.22Z"/>
      <path class="cls-1" d="m171.38,190.71c-.87-.82-1.91-1.35-2.04-2.05-.13-.74.38-2.12.99-2.4,4.73-2.14,9.53-4.14,14.37-5.99.62-.24,2.03.37,2.36.98.32.58-.03,2.21-.53,2.46-4.92,2.41-9.93,4.63-15.16,7.01Z"/>
      <path class="cls-1" d="m208.07,181.26c-.64.79-1.02,1.51-1.61,1.94-3.24,2.38-6.47,4.79-9.86,6.93-.8.5-2.23,0-3.37-.03.37-1.14.4-2.72,1.18-3.35,3.05-2.46,6.3-4.66,9.57-6.83.69-.46,1.81-.62,2.62-.44.56.12.93,1.08,1.48,1.77Z"/>
      <path class="cls-1" d="m170.38,201.78c-.76-.64-1.85-1.13-2.01-1.84-.16-.7.41-2.14,1-2.36,4.2-1.61,8.46-3.07,12.76-4.37.67-.2,2.25.51,2.34.99.15.83-.31,2.38-.93,2.63-4.24,1.76-8.58,3.26-13.16,4.95Z"/>
      <path class="cls-1" d="m212.34,216.97c-.37.39-.83,1.21-1.54,1.6-3.52,1.94-7.05,3.89-10.71,5.55-.83.38-2.17-.36-3.28-.59.48-1.02.68-2.5,1.48-2.98,3.45-2.06,7.05-3.88,10.64-5.68,1.81-.91,3.5.02,3.41,2.11Z"/>
      <path class="cls-1" d="m169.93,212.72c-.75-.7-1.98-1.33-2.02-2.03-.04-.79.83-2.11,1.59-2.37,3.9-1.36,7.87-2.55,11.87-3.55.72-.18,2.07.58,2.5,1.29.28.47-.35,2.16-.92,2.37-4.15,1.52-8.39,2.81-13.01,4.3Z"/>
      <path class="cls-1" d="m207.24,195.18c-.31.36-.75,1.16-1.42,1.59-3.07,1.95-6.14,3.92-9.36,5.59-.82.42-2.2-.26-3.33-.43.44-1.05.58-2.53,1.37-3.08,2.98-2.07,6.15-3.88,9.3-5.7,1.72-.99,3.43-.16,3.44,2.03Z"/>
      <path class="cls-1" d="m209.55,206.27c-.31.36-.75,1.18-1.43,1.59-3.03,1.8-6.07,3.62-9.24,5.13-.85.41-2.21-.25-3.34-.42.51-1.09.72-2.63,1.58-3.2,2.76-1.84,5.75-3.35,8.67-4.94,2-1.09,3.73-.44,3.76,1.84Z"/>
      <path class="cls-1" d="m83.07,225.44c-1.42.43-3.19,1.46-3.91,1.12-4.69-2.16-9.21-4.57-13.62-7.06-.54-.31-.58-1.81-.1-2.35.48-.53,2.29-1,2.89-.71,4.64,2.23,9.15,4.63,13.65,7.03.43.23.5.86,1.09,1.97Z"/>
      <path class="cls-1" d="m173.31,222.68c-.72-.65-1.91-1.24-1.92-1.84-.01-.84.69-2.21,1.39-2.45,3.51-1.24,7.09-2.28,10.71-3.13.73-.17,2.03.59,2.49,1.29.28.43-.38,2.11-.94,2.32-3.76,1.38-7.61,2.52-11.73,3.83Z"/>
      <path class="cls-1" d="m323.86,72.08c-.64.59-1.33,1.76-2.03,1.76-.79,0-2.07-.9-2.29-1.66-.99-3.38-1.8-6.83-2.41-10.3-.14-.78.58-2.24,1.25-2.5.64-.25,2.32.48,2.51,1.1,1.12,3.65,1.93,7.39,2.97,11.6Z"/>
      <path class="cls-1" d="m290.06,15.61c-.73.87-1.15,1.82-1.69,1.9-.83.12-2.08-.08-2.55-.65-1.43-1.72-2.7-3.61-3.76-5.59-.34-.64-.06-1.89.38-2.58.26-.41,1.8-.64,2.04-.35,1.92,2.29,3.67,4.72,5.59,7.26Z"/>
      <path class="cls-1" d="m290.23,0c2.2-.16,5.68,4.57,4.86,6.09-.36.67-2.06,1.42-2.16,1.31-1.45-1.74-2.84-3.57-3.97-5.53-.19-.32.94-1.4,1.27-1.86Z"/>
      <path class="cls-1" d="m74.39,173.97c-1.6-2.28-2.86-3.92-3.86-5.7-.1-.18,1.93-1.84,1.99-1.78,1.48,1.41,2.91,2.89,4.09,4.55.16.23-1.08,1.46-2.22,2.94Z"/>
      <path class="cls-1" d="m158.08,107.48c-.03,6.5-4.67,11.67-11.16,12.42-6.35.73-12.22-3.43-13.63-9.7-.19-.86-.43-1.87-.15-2.62.32-.84,1.21-2.03,1.86-2.03.72,0,1.53,1.09,2.15,1.83.26.31.08.96.17,1.44.94,5.01,5.85,8.05,10.69,6.64,4.4-1.28,6.96-6.28,5.44-10.62-1.7-4.86-6.86-7.03-11.53-4.86-.45.21-.88.7-1.29.67-1.03-.07-2.05-.36-3.08-.56.33-1.01.34-2.39,1.03-2.96,4.32-3.6,11.66-2.82,15.91,1.55,2.37,2.44,3.6,5.37,3.57,8.8Z"/>
      <path class="cls-1" d="m215,227.31c.1-2.09-1.6-3.01-3.41-2.11-2.38,1.2-4.75,2.43-7.09,3.7h8.96c.7-.39,1.17-1.2,1.54-1.6Z"/>
      <path class="cls-1" d="m189.58,228.35c.59-.15,1.4-1.76,1.17-2.21-.38-.75-1.6-1.63-2.34-1.54-3.69.48-7.36,1.16-10.97,2.03-.73.18-1.56,1.46-1.64,2.3,0,.07.05.15.08.23h10.13c1.2-.27,2.4-.52,3.58-.82Z"/>
    </g>
  </g>
</svg>