<?xml version="1.0" encoding="UTF-8"?>
<svg id="Layer_2" data-name="Layer 2" xmlns="http://www.w3.org/2000/svg" viewBox="0 0 304.13 103.65">
  <defs>
    <style>
      .cls-1 {
        fill: none;
        stroke: #9e9e9e;
        stroke-miterlimit: 10;
      }

      .cls-2 {
        fill: #294572;
      }

      .cls-3 {
        fill: #9e9e9e;
      }
    </style>
  </defs>
  <g id="Layer_1-2" data-name="Layer 1">
    <g id="Horizontal">
      <g>
        <g>
          <path class="cls-2" d="m159.46,14.41l20.48,15.16c.11.1.22.18.33.23.28.1.44.13.5.08l19.99-15.46h1.99v54.31h-1.99V17.3l-20.32,15.31-20.82-15.31h-.17v51.42h-1.99V14.41h1.99Z"/>
          <path class="cls-2" d="m217.66,14.26v54.31h-1.99V14.26h1.99Z"/>
          <path class="cls-2" d="m232.73,14.41v52.33h24.96v1.83h-27.12V14.41h2.16Z"/>
          <path class="cls-2" d="m267.29,14.41v54.16h-1.82V14.41h1.82Zm5.26,16.07c-.17-.15-.22-.28-.17-.38.05-.1.17-.2.33-.31l27.67-15.39h2.82l-27.59,15.54c-.06.05-.11.09-.17.11-.06.03-.11.09-.17.19-.06.1-.11.18-.17.23,0,.05.03.1.08.15.05.05.1.1.12.15.03.05.07.1.12.15l28.67,37.63h-2.65l-28.92-38.09Z"/>
        </g>
        <g>
          <path class="cls-3" d="m212.68,74.42c.43,0,.77,0,1.16,0,0,4.92,0,9.8,0,14.68-.08.06-.16.11-.23.17-.96-.85-1.69-1.92-2.52-2.89-.89-1.02-1.73-2.08-2.6-3.12-.85-1.02-1.7-2.03-2.55-3.05-.85-1.01-1.7-2.03-2.7-3.23,0,4.18,0,8.15,0,12.15h-1.11c0-4.92,0-9.81,0-15,.44.39.72.59.94.85,2.98,3.57,5.94,7.15,8.91,10.73.18.22.38.42.7.78,0-4.12,0-8.07,0-12.07Z"/>
          <path class="cls-3" d="m169.31,76.66c-.3.18-.57.35-.84.52-1.92-2.29-4.37-2.24-6.95-1.61-.37.09-.72.28-1.04.49-.84.53-1.29,1.3-1.24,2.28.06,1,.7,1.63,1.61,1.89,1.42.41,2.89.67,4.32,1.05.94.25,1.92.47,2.78.91,2.18,1.1,2.5,4.13.71,5.8-2.16,2.01-8.87,2.28-11-1.75.29-.16.58-.33.91-.51,1.92,2.55,4.51,3.04,7.46,2.38.53-.12,1.07-.38,1.52-.7,1.63-1.18,1.5-3.52-.36-4.29-1.51-.63-3.19-.87-4.79-1.29-.77-.21-1.56-.39-2.29-.7-2.36-1.03-2.78-3.83-.88-5.54,2.46-2.21,7.84-1.83,9.8.68.09.11.16.24.27.42Z"/>
          <path class="cls-3" d="m200,89.07c-.76.21-1.24.12-1.54-.68-.37-.97-.67-2.23-1.43-2.73-.73-.48-2.01-.15-3.05-.15-1.67,0-3.34.02-5.01-.02-.59-.01-.93.14-1.14.7-.26.71-.67,1.37-.9,2.09-.26.8-.74,1.05-1.63.78.36-.79.72-1.58,1.08-2.37,1.79-3.91,3.58-7.81,5.36-11.73.19-.41.38-.66.9-.65.48.01.74.15.94.6,2.06,4.55,4.15,9.1,6.23,13.65.07.15.12.32.18.5Zm-11.36-4.66c2.71,0,5.29,0,8.05,0-1.35-2.99-2.65-5.87-4.03-8.94-1.39,3.09-2.69,5.97-4.02,8.94"/>
          <path class="cls-3" d="m184.01,86.44c.22.2.45.41.68.62-2.36,2.84-7.87,3.05-10.79.46-3.16-2.79-3.27-8.32-.23-11.27,2.89-2.8,8.31-2.74,11.01.17-.22.21-.45.42-.67.63-3.6-3.06-8.07-1.8-9.79.16-2.19,2.5-2.17,6.78.11,9.17,2.38,2.49,6.3,2.53,9.68.06Z"/>
        </g>
        <line class="cls-1" x1="220.59" y1="88.24" x2="303.95" y2="88.24"/>
      </g>
      <g>
        <path class="cls-3" d="m40.87,50.55c0-14.84,9.83-25.62,22.6-26.78,15.56-1.41,28.61,11.37,27.23,26.89-.78,8.77-5.18,15.43-12.86,19.85-.19.11-.4.3-.59.29-.5-.03-1-.16-1.5-.25.21-.47.28-1.1.64-1.37,1.59-1.21,3.45-2.13,4.88-3.49,6.92-6.59,9.37-14.62,6.57-23.79-2.8-9.16-9.31-14.55-18.72-16.11-9.54-1.58-19.09,3.42-23.65,11.99-4.56,8.57-3.29,19.02,3.17,26.2.21.23.55.44.6.7.07.42.09.98-.14,1.28-.15.2-.79.11-1.17,0-.26-.08-.44-.42-.65-.65-4.26-4.77-6.34-10.37-6.4-14.75Z"/>
        <path class="cls-3" d="m65.91,18.84c15.38.11,28.02,11.72,29.5,27.09.32,3.29.02,6.51-.72,9.7-.11.47-.61,1.18-.96,1.21-1.1.08-1.09-.67-.89-1.55,1.55-6.54.93-12.86-2.03-18.9-5-10.2-15.93-16.92-28.08-15.39-12.78,1.61-22.28,10.77-24.27,22.95-1.44,8.83.92,16.6,6.8,23.33.23.27.6.51.67.81.09.38.09.96-.13,1.18-.21.21-.78.14-1.17.06-.22-.04-.4-.34-.58-.54-7.69-8.86-10.09-18.96-6.15-30.03,3.95-11.09,12.09-17.59,23.76-19.53,1.4-.23,2.84-.26,4.26-.39Z"/>
        <path class="cls-3" d="m86.1,48.63c-.05,8.53-5.42,16.18-13.38,19.04-.38.14-.78.39-1.14.33-.37-.06-.83-.36-.98-.68-.11-.24.13-.78.38-1,.27-.25.73-.29,1.11-.43,8.02-2.91,12.86-10.84,11.98-19.6-.79-7.86-7.31-14.55-15.42-15.81-9.53-1.48-18.67,4.72-20.73,14.08-2.11,9.54,3.46,18.97,12.78,21.69.73.21,2.01.13,1.67,1.4-.36,1.35-1.48.62-2.24.4-8.86-2.53-15.13-11.26-14.53-20.17.68-10.08,7.52-17.76,17.17-19.27,12.26-1.92,23.43,7.65,23.35,20.03Z"/>
        <path class="cls-3" d="m50.25,48.62c0-8.12,5.82-14.5,14.22-15.57,7.23-.92,14.63,4.33,16.47,11.68.17.69.37,1.39-.53,1.64-.91.25-1.13-.45-1.29-1.14-.03-.13-.08-.26-.12-.38-1.02-3.57-3.17-6.27-6.36-8.12-5.03-2.94-11.5-2.27-15.84,1.59-4.51,4.01-5.92,10.26-3.55,15.76,2.3,5.35,7.85,8.66,13.67,8.17,5.83-.49,10.52-4.36,12.1-9.99.1-.34.07-.78.28-1.02.3-.35.77-.57,1.16-.84.22.38.66.79.63,1.15-.08.83-.33,1.66-.62,2.45-2.59,7.07-9.88,11.28-17.31,10.02-7.44-1.27-12.91-7.78-12.92-15.39Z"/>
        <path class="cls-3" d="m100.27,48.6c.02,14.06-8.56,26.78-21.6,32.01-.17.07-.35.2-.5.17-.53-.12-1.05-.3-1.57-.45.28-.43.47-1.04.86-1.25,1.91-1.06,4.01-1.81,5.8-3.03,11.1-7.49,16.41-18.02,14.79-31.29-1.74-14.22-10.15-23.29-23.75-27.6-.21-.07-.51-.03-.64-.16-.32-.35-.57-.77-.85-1.16.42-.22.83-.61,1.25-.62.55-.02,1.13.22,1.68.39,14.62,4.44,24.5,17.74,24.52,33Z"/>
        <path class="cls-3" d="m17.07,48.62c.19-12.45,4.28-23.27,12.45-32.53.12-.13.22-.33.37-.38.52-.18,1.23-.6,1.55-.41.77.47.36,1.12-.14,1.67-3.02,3.33-5.68,6.93-7.52,11.03-8.14,18.15-6,35.07,6.21,50.75.22.28.58.54.62.84.05.38-.06.9-.31,1.15-.17.17-.78.12-1.05-.05-.4-.25-.7-.68-1.01-1.06-7.38-9.07-11.02-19.48-11.18-31.01Z"/>
        <path class="cls-3" d="m26.54,49.47c.41-13.56,5.33-23.87,15.17-31.77.28-.22.56-.52.88-.59.34-.08.92-.06,1.06.14.19.3.21.85.07,1.19-.14.33-.56.55-.88.8-17.67,13.9-19.22,39.85-3.33,55.8.13.13.26.25.38.37.51.49,1.05,1.1.29,1.65-.31.22-1.23.04-1.57-.28-5.7-5.52-9.48-12.15-11.09-19.93-.56-2.74-.75-5.56-.98-7.38Z"/>
        <path class="cls-3" d="m0,65.32c.15-.5.23-.8.32-1.1,1.63-5.37,2.51-10.83,2.51-16.47,0-9.48,2.25-18.47,6.41-26.98.12-.24.18-.57.37-.7.42-.28.91-.46,1.37-.68.11.5.44,1.1.28,1.5-.68,1.74-1.59,3.39-2.27,5.13-4.4,11.17-5.34,22.65-3.21,34.46.68,3.76-.53,7.33-2.18,10.71-.41.84-1.34.87-1.64.06-.75-2-1.35-4.05-1.97-5.93Zm3.54-5.58c-.41,1.48-.76,2.98-1.25,4.43-.46,1.34.15,2.39.58,3.78,1.11-2.92,1.38-5.76.67-8.21Z"/>
        <path class="cls-3" d="m18.18,16.21c.17.45.47.91.48,1.36,0,.34-.35.7-.56,1.04-11.19,18.99-11.59,38.24-1.35,57.74.38.72,1.36,1.61.11,2.25-1.12.57-1.39-.66-1.74-1.34-10.63-20.18-10.17-40.11,1.44-59.75.29-.5.75-.9,1.12-1.35l.5.05Z"/>
        <path class="cls-3" d="m31.36,48.58c.5-13.18,6.24-23.29,17.67-30.06.27-.16.56-.41.83-.39.42.02,1.06.11,1.2.38.15.29-.05.98-.32,1.22-.56.49-1.3.77-1.94,1.17-17.47,10.8-20.76,34.69-6.87,49.81.21.23.53.42.62.69.16.52.19,1.08.28,1.63-.55-.11-1.28-.03-1.61-.36-3.13-3.13-5.53-6.77-7.21-10.87-1.74-4.22-2.63-8.61-2.64-13.21Z"/>
        <path class="cls-3" d="m105.04,46.44c-.02,9.38-1.85,15.96-5.42,22.07-.14.23-.29.45-.42.69-.35.65-.88,1.21-1.56.65-.28-.23-.26-1.13-.05-1.58.89-1.94,2.04-3.77,2.84-5.75,6.96-17.31.12-36.98-16.02-46.26-.71-.41-2.01-.69-1.31-1.86.7-1.16,1.6-.15,2.28.26,12.81,7.75,19.18,19.22,19.66,31.79Z"/>
        <path class="cls-3" d="m21.83,47.79c.26-11.79,4.8-22.5,13.89-31.23.26-.25.52-.6.83-.65.37-.06.9.03,1.15.27.18.17.12.74,0,1.06-.12.3-.47.52-.73.77-8.86,8.59-13.31,19.07-13.18,31.4.08,7.7,2.26,14.86,6.33,21.42.19.3.5.61.51.92.02.38-.11.95-.38,1.12-.26.16-.84.01-1.15-.19-.31-.2-.47-.63-.68-.98-4.35-7.1-6.48-14.82-6.58-23.91Z"/>
        <path class="cls-3" d="m65.86,59.26c-5.91,0-10.69-4.72-10.72-10.59-.03-5.91,4.79-10.72,10.74-10.7,5.9.02,10.67,4.79,10.66,10.65-.02,5.87-4.8,10.64-10.67,10.64Zm-.07-1.89c4.85.01,8.81-3.89,8.86-8.71.04-4.8-3.92-8.77-8.76-8.8-4.85-.02-8.81,3.87-8.85,8.7-.05,4.78,3.94,8.8,8.75,8.81Z"/>
        <path class="cls-3" d="m12.32,49.44c.12-12.75,3.67-23.44,10.73-32.97.13-.18.27-.36.4-.53.43-.56.93-1.12,1.65-.55.73.57.27,1.17-.16,1.73-7.87,10.39-11.37,22.11-10.59,35.1.38,6.3,1.97,12.31,4.62,18.04.09.2.19.4.29.6.33.65.55,1.4-.31,1.66-.35.1-1.15-.41-1.36-.83-2.58-5.25-4.21-10.79-4.87-16.6-.24-2.17-.32-4.36-.41-5.65Z"/>
        <path class="cls-3" d="m109.82,48.26c-.02,5.3-.83,10.11-2.45,14.79-.14.41-.32.89-.63,1.13-.24.18-.95.16-1.06-.02-.22-.34-.31-.89-.22-1.3.64-2.82,1.62-5.59,1.98-8.44,1.86-14.62-2.74-26.97-13.45-37.07-.62-.58-1.28-1.11-1.94-1.64-.56-.45-1.09-.93-.52-1.66.6-.76,1.19-.26,1.72.17,6.2,4.97,10.74,11.16,13.62,18.56,1.98,5.09,2.92,10.37,2.96,15.47Z"/>
        <path class="cls-3" d="m132.41,35.76c-.19.19-.54.78-.8.74-.41-.05-.98-.47-1.09-.85-.59-2.01-.99-4.07-1.58-6.07-2.81-9.42-7.56-17.77-14.13-25.08-.24-.27-.59-.51-.66-.82-.09-.37-.09-.96.14-1.16.23-.21.79-.12,1.18-.04.22.05.39.35.57.55,8.3,9.17,13.69,19.82,16.25,31.92.04.17.05.35.12.82Z"/>
        <path class="cls-3" d="m114.43,45.08c.02.45.17.94.04,1.33-.15.42-.56.75-.86,1.13-.33-.35-.9-.66-.96-1.05-.29-1.89-.36-3.82-.67-5.71-1.61-9.66-5.92-17.96-12.72-24.98-.19-.19-.49-.35-.55-.57-.14-.52-.16-1.08-.22-1.62.51.08,1.1.02,1.5.28.58.38,1.03.98,1.52,1.5,7.75,8.4,12.01,18.32,12.94,29.69Z"/>
        <path class="cls-3" d="m137.46,36.62c-.21.21-.63.84-.81.78-.44-.15-1.01-.56-1.12-.97-.71-2.67-1.21-5.39-1.98-8.04-2.14-7.34-5.46-14.11-9.84-20.37-.23-.33-.58-.64-.64-1-.06-.37.06-.95.32-1.13.24-.17.79-.02,1.16.12.21.08.34.39.5.61,6.26,8.88,10.36,18.67,12.28,29.36.02.13.05.26.14.65Z"/>
        <path class="cls-3" d="m118.68,40.12c-.22.2-.54.73-.87.74-.34.01-.89-.43-1-.78-.34-1.06-.49-2.17-.74-3.25-1.89-8.15-5.6-15.39-11.02-21.75-.14-.17-.38-.32-.41-.52-.1-.54-.12-1.09-.16-1.64.54.15,1.28.11,1.59.46,6.62,7.51,10.74,16.24,12.52,26.08.02.13.04.26.1.65Z"/>
        <path class="cls-3" d="m127.52,35.56c-.22.21-.51.69-.88.77-.28.06-.85-.33-.97-.65-.33-.87-.49-1.8-.73-2.7-2.07-7.81-5.56-14.93-10.45-21.37-.22-.28-.56-.55-.61-.86-.07-.41-.04-.98.21-1.26.16-.18.78-.02,1.18.09.18.05.31.31.44.48,5.59,7.29,9.45,15.39,11.55,24.34.07.3.13.61.25,1.17Z"/>
        <path class="cls-3" d="m122.72,35.8c-.22.23-.63.87-.82.81-.45-.14-1.01-.54-1.16-.96-.87-2.53-1.51-5.14-2.45-7.63-2.01-5.29-4.85-10.14-8.39-14.56-.2-.24-.52-.48-.54-.74-.04-.43,0-.98.25-1.27.15-.18.77,0,1.16.11.18.05.3.31.44.49,5.44,6.79,9.21,14.41,11.26,22.87.05.22.12.43.25.88Z"/>
        <path class="cls-3" d="m6.89,66.32c.18.24.57.57.7.98,1.92,5.94,4.69,11.45,8.28,16.55.42.59.74,1.31-.09,1.67-.34.15-1.17-.24-1.45-.63-3.73-5.17-6.52-10.83-8.49-16.89-.34-1.04.03-1.75,1.06-1.69Z"/>
        <path class="cls-3" d="m91.48,63.47c-.25.45-.41.81-.63,1.15-3.09,4.81-7.23,8.44-12.39,10.89-.65.31-1.41.73-1.83-.2-.41-.92.38-1.23,1.04-1.54,4.84-2.29,8.7-5.7,11.6-10.19.17-.26.3-.62.54-.74.31-.16.75-.25,1.07-.14.25.08.4.5.6.78Z"/>
        <path class="cls-3" d="m142.24,36.33c-.21.21-.64.84-.82.77-.45-.16-1.01-.58-1.12-.99-.6-2.37-.96-4.81-1.62-7.16-.75-2.7-1.77-5.32-2.58-8-.14-.45.22-1.05.35-1.58.46.3,1.16.5,1.33.91,2.05,5,3.46,10.2,4.34,15.53.01.09.04.17.11.52Z"/>
        <path class="cls-3" d="m10.24,84.61c.2.16.57.39.83.71,1.94,2.45,3.87,4.9,5.74,7.4.26.35.11,1,.14,1.51-.51-.09-1.25,0-1.5-.3-2.06-2.52-4.06-5.09-6.01-7.7-.56-.75-.19-1.56.81-1.62Z"/>
        <path class="cls-3" d="m95.7,73.79c-.28.4-.45.78-.73,1.04-2.14,1.94-4.29,3.86-6.46,5.76-.52.46-1.27.81-1.68,0-.16-.33.2-1.14.55-1.47,2.04-1.91,4.13-3.77,6.25-5.6.35-.3.9-.47,1.36-.5.2-.01.44.47.7.78Z"/>
        <path class="cls-3" d="m19.65,102.6c-.21.25-.4.69-.65.72-.38.05-.9-.05-1.18-.29-1.36-1.22-2.68-2.49-3.98-3.76-.67-.65-1.35-1.32-1.88-2.08-.21-.3-.04-.86-.04-1.3.44,0,1.07-.2,1.31.02,2.07,1.95,4.08,3.98,6.1,6,.14.14.19.39.33.69Z"/>
        <path class="cls-3" d="m32.64,94.52c0,.92-.79,1.41-1.41.91-2.02-1.61-3.98-3.3-5.9-5.03-.22-.2-.19-1.02.03-1.24.22-.22.98-.23,1.25-.01,1.91,1.53,3.77,3.14,5.62,4.75.22.19.32.5.4.63Z"/>
        <path class="cls-3" d="m31.3,87.34c-.15.24-.25.63-.47.71-.34.12-.91.17-1.1-.03-1.79-1.81-3.53-3.65-5.23-5.55-.18-.2-.09-.92.13-1.14.21-.21.94-.25,1.14-.06,1.8,1.8,3.53,3.66,5.27,5.51.11.12.15.31.25.55Z"/>
        <path class="cls-3" d="m77.51,86.25c-.39-.37-.86-.61-.92-.93-.06-.34.17-.96.45-1.08,2.14-.97,4.31-1.87,6.5-2.71.28-.11.92.17,1.07.44.14.26-.01,1-.24,1.11-2.22,1.09-4.49,2.09-6.86,3.17Z"/>
        <path class="cls-3" d="m94.11,81.98c-.29.36-.46.68-.73.88-1.47,1.07-2.93,2.17-4.46,3.13-.36.23-1.01,0-1.53-.01.17-.52.18-1.23.53-1.51,1.38-1.11,2.85-2.11,4.33-3.09.31-.21.82-.28,1.19-.2.25.06.42.49.67.8Z"/>
        <path class="cls-3" d="m77.06,91.26c-.34-.29-.84-.51-.91-.83-.07-.32.19-.97.45-1.07,1.9-.73,3.83-1.39,5.77-1.98.3-.09,1.02.23,1.06.45.07.37-.14,1.08-.42,1.19-1.92.8-3.88,1.48-5.95,2.24Z"/>
        <path class="cls-3" d="m96.03,98.13c-.17.18-.38.55-.7.72-1.59.88-3.19,1.76-4.84,2.51-.38.17-.98-.16-1.48-.27.22-.46.31-1.13.67-1.35,1.56-.93,3.19-1.75,4.81-2.57.82-.41,1.58,0,1.54.95Z"/>
        <path class="cls-3" d="m76.86,96.21c-.34-.32-.9-.6-.92-.92-.02-.36.37-.95.72-1.07,1.76-.62,3.56-1.15,5.37-1.61.33-.08.93.26,1.13.58.13.21-.16.98-.42,1.07-1.88.69-3.79,1.27-5.88,1.94Z"/>
        <path class="cls-3" d="m93.73,88.27c-.14.16-.34.53-.64.72-1.39.88-2.78,1.77-4.23,2.53-.37.19-1-.12-1.5-.2.2-.48.26-1.15.62-1.39,1.35-.94,2.78-1.76,4.2-2.58.78-.45,1.55-.07,1.56.92Z"/>
        <path class="cls-3" d="m94.77,93.29c-.14.16-.34.54-.65.72-1.37.82-2.74,1.64-4.18,2.32-.39.18-1-.11-1.51-.19.23-.49.33-1.19.71-1.45,1.25-.83,2.6-1.51,3.92-2.24.9-.49,1.68-.2,1.7.83Z"/>
        <path class="cls-3" d="m37.57,101.96c-.64.2-1.44.66-1.77.51-2.12-.98-4.16-2.07-6.16-3.19-.24-.14-.26-.82-.04-1.06.22-.24,1.04-.45,1.31-.32,2.1,1.01,4.14,2.09,6.17,3.18.19.1.23.39.49.89Z"/>
        <path class="cls-3" d="m78.38,100.71c-.33-.29-.87-.56-.87-.83,0-.38.31-1,.63-1.11,1.59-.56,3.21-1.03,4.84-1.42.33-.08.92.27,1.13.58.12.19-.17.95-.43,1.05-1.7.63-3.44,1.14-5.3,1.73Z"/>
        <path class="cls-3" d="m146.47,32.6c-.29.27-.6.8-.92.8-.36,0-.93-.41-1.04-.75-.45-1.53-.81-3.09-1.09-4.66-.06-.35.26-1.01.56-1.13.29-.11,1.05.22,1.14.5.5,1.65.87,3.34,1.34,5.25Z"/>
        <path class="cls-3" d="m131.19,7.06c-.33.39-.52.82-.77.86-.37.05-.94-.04-1.16-.29-.65-.78-1.22-1.63-1.7-2.53-.16-.29-.03-.85.17-1.16.12-.19.81-.29.92-.16.87,1.03,1.66,2.13,2.53,3.28Z"/>
        <path class="cls-3" d="m131.26,0c1-.07,2.57,2.06,2.2,2.75-.16.3-.93.64-.98.59-.66-.79-1.29-1.61-1.8-2.5-.08-.15.43-.63.57-.84Z"/>
        <path class="cls-3" d="m33.65,78.68c-.73-1.03-1.29-1.77-1.74-2.58-.05-.08.87-.83.9-.8.67.64,1.32,1.31,1.85,2.06.07.11-.49.66-1,1.33Z"/>
        <path class="cls-3" d="m71.49,48.61c-.01,2.94-2.11,5.28-5.05,5.62-2.87.33-5.53-1.55-6.16-4.39-.09-.39-.2-.85-.07-1.18.15-.38.55-.92.84-.92.33,0,.69.49.97.83.12.14.04.43.08.65.43,2.27,2.64,3.64,4.84,3,1.99-.58,3.15-2.84,2.46-4.81-.77-2.2-3.1-3.18-5.21-2.2-.2.09-.4.32-.58.31-.47-.03-.93-.16-1.39-.25.15-.46.15-1.08.47-1.34,1.96-1.63,5.27-1.27,7.2.7,1.07,1.1,1.63,2.43,1.61,3.98Z"/>
        <path class="cls-3" d="m97.24,102.81c.04-.95-.72-1.36-1.54-.95-1.08.54-2.15,1.1-3.21,1.67h4.05c.32-.18.53-.54.7-.72Z"/>
        <path class="cls-3" d="m85.74,103.28c.27-.07.64-.79.53-1-.17-.34-.72-.74-1.06-.7-1.67.22-3.33.52-4.96.92-.33.08-.71.66-.74,1.04,0,.03.02.07.03.1h4.58c.54-.12,1.09-.23,1.62-.37Z"/>
      </g>
    </g>
  </g>
</svg>