<?xml version="1.0" encoding="UTF-8"?>
<svg id="Layer_2" data-name="Layer 2" xmlns="http://www.w3.org/2000/svg" viewBox="0 0 321.6 164.76">
  <defs>
    <style>
      .cls-1 {
        fill: none;
        stroke: #294572;
        stroke-miterlimit: 10;
      }

      .cls-2 {
        fill: #fff;
      }

      .cls-3 {
        fill: #294572;
      }
    </style>
  </defs>
  <g id="Layer_1-2" data-name="Layer 1">
    <g id="Milk">
      <g>
        <path class="cls-2" d="m4.36.33l44.92,33.24c.24.23.48.39.73.5.6.22.97.28,1.09.17L94.93.33h4.36v119.1h-4.36V6.68l-44.55,33.57L4.73,6.68h-.36v112.75H0V.33h4.36Z"/>
        <path class="cls-2" d="m131.98,0v119.1h-4.36V0h4.36Z"/>
        <path class="cls-2" d="m165.03.33v114.76h54.74v4.01h-59.47V.33h4.73Z"/>
        <path class="cls-2" d="m240.81.33v118.77h-4V.33h4Zm11.54,35.25c-.36-.33-.49-.61-.36-.84.12-.22.36-.44.73-.67L313.39.33h6.18l-60.5,34.08c-.12.11-.24.2-.36.25-.12.06-.25.19-.36.42-.12.22-.24.39-.36.5,0,.11.06.22.18.33.12.11.21.23.27.33.06.11.15.23.27.33l62.88,82.52h-5.82l-63.43-83.52Z"/>
      </g>
      <g>
        <path class="cls-3" d="m121.07,131.93c.95,0,1.7,0,2.55,0,0,10.79,0,21.49,0,32.2-.17.12-.34.24-.51.37-2.11-1.86-3.7-4.22-5.53-6.34-1.94-2.25-3.8-4.56-5.7-6.84-1.86-2.23-3.72-4.46-5.58-6.69-1.86-2.22-3.72-4.44-5.93-7.09,0,9.17,0,17.87,0,26.63-.96,0-1.64,0-2.44,0,0-10.8,0-21.51,0-32.89.96.86,1.59,1.3,2.06,1.87,6.53,7.83,13.03,15.69,19.54,23.53.4.48.84.93,1.54,1.71,0-9.03,0-17.69,0-26.47Z"/>
        <path class="cls-3" d="m25.96,136.84c-.65.4-1.24.76-1.85,1.13-4.21-5.02-9.59-4.91-15.23-3.54-.8.19-1.58.62-2.28,1.07-1.84,1.16-2.83,2.84-2.71,5,.12,2.18,1.53,3.57,3.53,4.15,3.12.89,6.33,1.47,9.47,2.3,2.07.54,4.21,1.04,6.09,1.99,4.78,2.41,5.49,9.07,1.57,12.71-4.74,4.4-19.44,5.01-24.13-3.85.64-.36,1.28-.72,2-1.13,4.2,5.59,9.9,6.67,16.36,5.22,1.17-.26,2.36-.83,3.33-1.53,3.58-2.59,3.29-7.72-.78-9.41-3.32-1.37-7-1.9-10.51-2.84-1.69-.45-3.43-.85-5.02-1.54-5.17-2.26-6.1-8.4-1.92-12.14,5.39-4.84,17.18-4.02,21.5,1.5.19.25.34.52.59.91Z"/>
        <path class="cls-3" d="m93.26,164.07c-1.66.47-2.72.27-3.38-1.49-.8-2.14-1.47-4.89-3.14-5.99-1.6-1.04-4.41-.32-6.69-.34-3.66-.02-7.32.05-10.98-.04-1.3-.03-2.04.31-2.49,1.55-.57,1.56-1.46,3.01-1.98,4.59-.58,1.76-1.63,2.3-3.57,1.72.79-1.74,1.58-3.46,2.37-5.19,3.92-8.57,7.86-17.14,11.76-25.72.41-.9.84-1.45,1.98-1.42,1.05.03,1.62.33,2.06,1.31,4.53,9.99,9.11,19.95,13.67,29.92.15.34.26.7.4,1.09Zm-24.92-10.23c5.95,0,11.61,0,17.66,0-2.96-6.57-5.8-12.88-8.83-19.61-3.05,6.77-5.89,13.1-8.83,19.61"/>
        <path class="cls-3" d="m58.19,158.28c.49.45,1,.91,1.5,1.37-5.16,6.22-17.25,6.69-23.67,1.02-6.93-6.12-7.17-18.24-.51-24.72,6.33-6.14,18.23-6.02,24.15.37-.49.46-.99.92-1.48,1.37-7.9-6.71-17.69-3.94-21.46.35-4.81,5.49-4.75,14.87.24,20.1,5.22,5.46,13.82,5.55,21.22.14Z"/>
      </g>
      <line class="cls-1" x1="138.4" y1="162.24" x2="321.2" y2="162.24"/>
    </g>
  </g>
</svg>